<?xml version="1.0" encoding="utf-8"?>
<!-- Generator: Adobe Illustrator 19.0.0, SVG Export Plug-In . SVG Version: 6.00 Build 0)  -->
<svg version="1.1" id="Camada_1" xmlns="http://www.w3.org/2000/svg" xmlns:xlink="http://www.w3.org/1999/xlink" x="0px" y="0px"
	 viewBox="0 0 1920 1080" style="enable-background:new 0 0 1920 1080;" xml:space="preserve">
<style type="text/css">
	.st0{clip-path:url(#XMLID_28_);fill:#1C0E30;enable-background:new    ;}
	.st1{clip-path:url(#XMLID_28_);}
	.st2{fill:#1C0E30;enable-background:new    ;}
	.st3{fill:url(#XMLID_43_);}
	.st4{opacity:0.31;fill:url(#XMLID_44_);enable-background:new    ;}
	.st5{fill:url(#XMLID_45_);}
	.st6{opacity:0.31;fill:url(#XMLID_46_);enable-background:new    ;}
	.st7{fill:url(#XMLID_47_);}
	.st8{opacity:0.31;fill:url(#XMLID_48_);enable-background:new    ;}
	.st9{fill:url(#XMLID_49_);}
	.st10{opacity:0.31;fill:url(#XMLID_50_);enable-background:new    ;}
	.st11{fill:url(#XMLID_51_);}
	.st12{opacity:0.31;fill:url(#XMLID_52_);enable-background:new    ;}
	.st13{fill:url(#XMLID_53_);}
	.st14{opacity:0.31;fill:url(#XMLID_54_);enable-background:new    ;}
	.st15{clip-path:url(#XMLID_28_);fill:url(#XMLID_55_);}
	.st16{clip-path:url(#XMLID_28_);fill:url(#XMLID_56_);}
	.st17{clip-path:url(#XMLID_28_);fill:url(#XMLID_57_);}
	.st18{fill:#141414;}
</style>
<defs>
	<rect id="XMLID_26_" width="1920" height="1080"/>
</defs>
<clipPath id="XMLID_28_">
	<use xlink:href="#XMLID_26_"  style="overflow:visible;"/>
</clipPath>
<polygon id="XMLID_41_" class="st0" points="936.6,673 756.1,492.5 575.6,673 "/>
<g id="XMLID_34_" class="st1">
	<polygon id="XMLID_39_" class="st2" points="1506,831 1581.8,831 1506,754.8 	"/>
	<polygon id="XMLID_40_" class="st2" points="1426.1,675 1243.6,492.5 1061.1,675 	"/>
</g>
<polyline id="XMLID_32_" class="st0" points="-249.3,540 88.9,201.9 427,540 "/>
<polyline id="XMLID_29_" class="st0" points="1295.4,679.1 1633.5,340.9 1971.7,679.1 "/>
<polyline id="XMLID_31_" class="st0" points="1581.9,575.6 1920,237.4 2258.1,575.6 "/>
<g id="XMLID_22_" class="st1">
	<linearGradient id="XMLID_43_" gradientUnits="userSpaceOnUse" x1="283.8089" y1="822.9414" x2="283.8089" y2="369.7544">
		<stop  offset="0" style="stop-color:#141414"/>
		<stop  offset="1" style="stop-color:#462273"/>
	</linearGradient>
	<polyline id="XMLID_25_" class="st3" points="-169.4,652.1 283.8,198.9 737,652.1 	"/>
	<g id="XMLID_23_">
		<linearGradient id="XMLID_44_" gradientUnits="userSpaceOnUse" x1="497.0981" y1="822.857" x2="497.0981" y2="369.7054">
			<stop  offset="0" style="stop-color:#141414"/>
			<stop  offset="1" style="stop-color:#141414"/>
		</linearGradient>
		<polygon id="XMLID_24_" class="st4" points="265.9,652 306.1,570.9 265.9,515.3 347,411.4 257.2,298.8 283.8,273.4 263.9,245.9 
			286.7,223.1 277.3,213.7 283.8,198.8 737,652 		"/>
	</g>
</g>
<g id="XMLID_4_" class="st1">
	<linearGradient id="XMLID_45_" gradientUnits="userSpaceOnUse" x1="247.8538" y1="848.5647" x2="247.8538" y2="510.4226">
		<stop  offset="0" style="stop-color:#141414"/>
		<stop  offset="1" style="stop-color:#462273"/>
	</linearGradient>
	<polyline id="XMLID_2_" class="st5" points="-90.3,721.1 247.9,382.9 586,721.1 	"/>
	<g id="XMLID_1_">
		<linearGradient id="XMLID_46_" gradientUnits="userSpaceOnUse" x1="406.9979" y1="848.4803" x2="406.9979" y2="510.3736">
			<stop  offset="0" style="stop-color:#141414"/>
			<stop  offset="1" style="stop-color:#141414"/>
		</linearGradient>
		<polygon id="XMLID_3_" class="st6" points="234.5,721 264.5,660.5 234.5,619 295,541.5 228,457.5 247.9,438.5 233,418 250,401 
			243,394 247.9,382.9 586,721 		"/>
	</g>
</g>
<g id="XMLID_6_" class="st1">
	<linearGradient id="XMLID_47_" gradientUnits="userSpaceOnUse" x1="532.8538" y1="836.5647" x2="532.8538" y2="498.4226">
		<stop  offset="0" style="stop-color:#141414"/>
		<stop  offset="1" style="stop-color:#462273"/>
	</linearGradient>
	<polyline id="XMLID_9_" class="st7" points="194.7,709.1 532.9,370.9 871,709.1 	"/>
	<g id="XMLID_7_">
		<linearGradient id="XMLID_48_" gradientUnits="userSpaceOnUse" x1="691.9979" y1="836.4803" x2="691.9979" y2="498.3736">
			<stop  offset="0" style="stop-color:#141414"/>
			<stop  offset="1" style="stop-color:#141414"/>
		</linearGradient>
		<polygon id="XMLID_8_" class="st8" points="519.5,709 549.5,648.5 519.5,607 580,529.5 513,445.5 532.9,426.5 518,406 535,389 
			528,382 532.9,370.9 871,709 		"/>
	</g>
</g>
<g id="XMLID_10_" class="st1">
	<linearGradient id="XMLID_49_" gradientUnits="userSpaceOnUse" x1="1766.0339" y1="864.8239" x2="1766.0339" y2="427.8619">
		<stop  offset="0" style="stop-color:#141414"/>
		<stop  offset="1" style="stop-color:#462273"/>
	</linearGradient>
	<polyline id="XMLID_13_" class="st9" points="1329.1,700.1 1766,263.1 2203,700.1 	"/>
	<g id="XMLID_11_">
		<linearGradient id="XMLID_50_" gradientUnits="userSpaceOnUse" x1="1971.6869" y1="864.7395" x2="1971.6869" y2="427.8129">
			<stop  offset="0" style="stop-color:#141414"/>
			<stop  offset="1" style="stop-color:#141414"/>
		</linearGradient>
		<polygon id="XMLID_12_" class="st10" points="1748.8,700 1787.5,621.8 1748.8,568.2 1827,468 1740.4,359.5 1766,334.9 
			1746.8,308.4 1768.8,286.5 1759.8,277.4 1766,263.1 2203,700 		"/>
	</g>
</g>
<g id="XMLID_18_" class="st1">
	<linearGradient id="XMLID_51_" gradientUnits="userSpaceOnUse" x1="88.8538" y1="891.5647" x2="88.8538" y2="553.4226">
		<stop  offset="0" style="stop-color:#141414"/>
		<stop  offset="1" style="stop-color:#462273"/>
	</linearGradient>
	<polyline id="XMLID_21_" class="st11" points="-249.3,764.1 88.9,425.9 427,764.1 	"/>
	<g id="XMLID_19_">
		<linearGradient id="XMLID_52_" gradientUnits="userSpaceOnUse" x1="247.9979" y1="891.4803" x2="247.9979" y2="553.3736">
			<stop  offset="0" style="stop-color:#141414"/>
			<stop  offset="1" style="stop-color:#141414"/>
		</linearGradient>
		<polygon id="XMLID_20_" class="st12" points="75.5,764 105.5,703.5 75.5,662 136,584.5 69,500.5 88.9,481.5 74,461 91,444 84,437 
			88.9,425.9 427,764 		"/>
	</g>
</g>
<polygon id="XMLID_35_" class="st0" points="1209.7,675 1090.1,555.4 970.6,675 "/>
<g id="XMLID_14_" class="st1">
	<linearGradient id="XMLID_53_" gradientUnits="userSpaceOnUse" x1="1506.8538" y1="827.5647" x2="1506.8538" y2="489.4226">
		<stop  offset="0" style="stop-color:#141414"/>
		<stop  offset="1" style="stop-color:#462273"/>
	</linearGradient>
	<polyline id="XMLID_17_" class="st13" points="1168.7,700.1 1506.9,361.9 1845,700.1 	"/>
	<g id="XMLID_15_">
		<linearGradient id="XMLID_54_" gradientUnits="userSpaceOnUse" x1="1665.9979" y1="827.4803" x2="1665.9979" y2="489.3736">
			<stop  offset="0" style="stop-color:#141414"/>
			<stop  offset="1" style="stop-color:#141414"/>
		</linearGradient>
		<polygon id="XMLID_16_" class="st14" points="1493.5,700 1523.5,639.5 1493.5,598 1554,520.5 1487,436.5 1506.9,417.5 1492,397 
			1509,380 1502,373 1506.9,361.9 1845,700 		"/>
	</g>
</g>
<linearGradient id="XMLID_55_" gradientUnits="userSpaceOnUse" x1="1424.25" y1="992.5135" x2="1424.25" y2="226.9414">
	<stop  offset="0" style="stop-color:#141414"/>
	<stop  offset="0.7837" style="stop-color:#3B1F5E"/>
	<stop  offset="1" style="stop-color:#462273"/>
</linearGradient>
<polygon id="XMLID_30_" class="st15" points="1030,788 930.7,849 1098.5,964 1086.3,991 1920,991 1920,673 960,673 980.3,689.3 
	928.5,727.1 "/>
<linearGradient id="XMLID_56_" gradientUnits="userSpaceOnUse" x1="497.6667" y1="992.5135" x2="497.6667" y2="226.9414">
	<stop  offset="0" style="stop-color:#141414"/>
	<stop  offset="0.7837" style="stop-color:#3B1F5E"/>
	<stop  offset="1" style="stop-color:#462273"/>
</linearGradient>
<polygon id="XMLID_36_" class="st16" points="960.7,991 995.3,965 867.5,852 988.2,787.2 904.4,727.5 972.5,688.8 958.2,673 0,673 
	0,991 "/>
<linearGradient id="XMLID_57_" gradientUnits="userSpaceOnUse" x1="970.5833" y1="1080" x2="970.5833" y2="673">
	<stop  offset="0.1327" style="stop-color:#141414;stop-opacity:0"/>
	<stop  offset="0.1936" style="stop-color:#262C39;stop-opacity:3.514129e-002"/>
	<stop  offset="0.2673" style="stop-color:#38445E;stop-opacity:7.763347e-002"/>
	<stop  offset="0.3474" style="stop-color:#47597E;stop-opacity:0.1238"/>
	<stop  offset="0.4338" style="stop-color:#536A97;stop-opacity:0.1736"/>
	<stop  offset="0.5288" style="stop-color:#5D77AB;stop-opacity:0.2284"/>
	<stop  offset="0.6371" style="stop-color:#6480B9;stop-opacity:0.2908"/>
	<stop  offset="0.7701" style="stop-color:#6885C2;stop-opacity:0.3675"/>
	<stop  offset="1" style="stop-color:#6987C4;stop-opacity:0.5"/>
</linearGradient>
<polygon id="XMLID_27_" class="st17" points="958.2,673 972.5,688.8 904.4,727.5 988.6,787.2 867.3,852 995.3,965 841.7,1080 
	1046.7,1080 1099.5,964 930.8,849 1030.6,788 928.6,727.2 980.7,689.3 960.2,673 "/>
<g id="XMLID_37_" class="st1">
	<polygon id="XMLID_38_" class="st18" points="0,991 0,1080 841.7,1080 960.6,991 	"/>
	<polygon id="XMLID_42_" class="st18" points="1087.2,991 1046.7,1080 1920,1080 1920,991 	"/>
</g>
</svg>
